<mxfile host="app.diagrams.net" modified="2024-02-02T21:03:23.541Z" agent="Mozilla/5.0 (Windows NT 10.0; Win64; x64; rv:122.0) Gecko/20100101 Firefox/122.0" version="23.1.1" etag="_EUGeh0XtxDDOIZ5WN18" type="github">
  <diagram name="Page-1" id="kYQXf9u5RxUAtF77oCtI">
    <mxGraphModel>
      <root>
        <mxCell id="0" />
        <mxCell id="1" parent="0" />
      </root>
    </mxGraphModel>
  </diagram>
</mxfile>
